<svg width="213" height="59" viewBox="0 0 213 59" fill="none" xmlns="http://www.w3.org/2000/svg">
<g filter="url(#filter0_d_76_45)">
<path fill-rule="evenodd" clip-rule="evenodd" d="M4 0H57V4H8V47H57V51H4V0Z" fill="white"/>
<path fill-rule="evenodd" clip-rule="evenodd" d="M133 0H79V4H129V47H79V51H133V0Z" fill="white"/>
<path d="M27.8944 27.5059C27.8944 28.6208 27.6991 29.5973 27.3085 30.4355C26.926 31.2656 26.3971 31.9574 25.7216 32.5107C25.0543 33.0641 24.269 33.4792 23.3656 33.7559C22.4705 34.0326 21.5061 34.1709 20.4726 34.1709C20.0738 34.1709 19.6344 34.118 19.1542 34.0122C18.6822 33.9064 18.2021 33.7762 17.7138 33.6216C17.2255 33.4588 16.7535 33.2879 16.2978 33.1089C15.8502 32.9217 15.4514 32.7467 15.1015 32.584L15.6386 27.5547C16.3303 27.9697 17.0953 28.2871 17.9335 28.5068C18.7799 28.7184 19.6099 28.8242 20.4237 28.8242C20.5784 28.8242 20.7655 28.8201 20.9853 28.812C21.205 28.7957 21.4125 28.7591 21.6078 28.7021C21.8113 28.637 21.9822 28.5435 22.1205 28.4214C22.2589 28.2993 22.328 28.1243 22.328 27.8965C22.328 27.7419 22.2792 27.6117 22.1816 27.5059C22.0839 27.3919 21.9578 27.3024 21.8031 27.2373C21.6485 27.1641 21.4735 27.1112 21.2782 27.0786C21.0829 27.0379 20.8917 27.0094 20.7045 26.9932C20.5173 26.9769 20.3424 26.9688 20.1796 26.9688C20.0168 26.9688 19.8866 26.9688 19.789 26.9688C19.0891 26.9688 18.4503 26.8467 17.8725 26.6025C17.3028 26.3584 16.8105 26.0207 16.3954 25.5894C15.9885 25.1499 15.6711 24.6331 15.4433 24.0391C15.2154 23.4368 15.1015 22.7858 15.1015 22.0859C15.1015 21.1257 15.2927 20.2671 15.6752 19.5103C16.0658 18.7453 16.5826 18.0983 17.2255 17.5693C17.8765 17.0322 18.6212 16.6213 19.4594 16.3364C20.2976 16.0516 21.1643 15.9092 22.0595 15.9092C22.4582 15.9092 22.8692 15.9255 23.2924 15.958C23.7156 15.9824 24.1347 16.0312 24.5497 16.1045C24.9729 16.1777 25.3839 16.2713 25.7826 16.3853C26.1814 16.4992 26.5598 16.6416 26.9179 16.8125L26.454 21.7686C25.9006 21.5814 25.3188 21.4268 24.7084 21.3047C24.1062 21.1745 23.5162 21.1094 22.9384 21.1094C22.8326 21.1094 22.6943 21.1134 22.5234 21.1216C22.3606 21.1216 22.1856 21.1338 21.9985 21.1582C21.8194 21.1745 21.6363 21.203 21.4491 21.2437C21.262 21.2843 21.0951 21.3413 20.9486 21.4146C20.8022 21.4797 20.6842 21.5692 20.5946 21.6831C20.5051 21.797 20.4644 21.9313 20.4726 22.0859C20.4807 22.265 20.5458 22.4115 20.6679 22.5254C20.7981 22.6312 20.9609 22.7166 21.1562 22.7817C21.3596 22.8387 21.5793 22.8794 21.8153 22.9038C22.0595 22.9282 22.2996 22.9445 22.5356 22.9526C22.7716 22.9526 22.9913 22.9526 23.1947 22.9526C23.3982 22.9445 23.565 22.9486 23.6952 22.9648C24.3463 23.0055 24.9322 23.1439 25.453 23.3799C25.9739 23.6159 26.4133 23.9292 26.7714 24.3198C27.1376 24.7104 27.4143 25.1784 27.6015 25.7236C27.7968 26.2607 27.8944 26.8548 27.8944 27.5059ZM45.0712 17.3252L44.6318 22.4766C44.3957 22.4115 44.1638 22.3667 43.936 22.3423C43.7081 22.3179 43.4762 22.3057 43.2402 22.3057C42.6624 22.3057 42.109 22.3789 41.58 22.5254C41.0592 22.6719 40.5953 22.8957 40.1884 23.1968C39.7896 23.4979 39.4682 23.8804 39.224 24.3442C38.988 24.8 38.87 25.3411 38.87 25.9678C38.87 26.4235 38.9351 26.8223 39.0653 27.1641C39.2037 27.4977 39.3949 27.7785 39.6391 28.0063C39.8914 28.2261 40.1925 28.3929 40.5424 28.5068C40.9005 28.6208 41.2952 28.6777 41.7265 28.6777C42.0276 28.6777 42.3368 28.6493 42.6542 28.5923C42.9716 28.5272 43.289 28.4417 43.6064 28.3359C43.9237 28.2301 44.2289 28.1081 44.5219 27.9697C44.8149 27.8314 45.0875 27.6849 45.3398 27.5303L45.1444 33.2676C44.8271 33.4303 44.4853 33.5768 44.1191 33.707C43.7528 33.8291 43.3744 33.9349 42.9838 34.0244C42.6013 34.1221 42.2148 34.1953 41.8241 34.2441C41.4416 34.293 41.0754 34.3174 40.7255 34.3174C39.5699 34.3174 38.516 34.1017 37.5639 33.6704C36.6199 33.2391 35.8061 32.6532 35.1225 31.9126C34.447 31.1639 33.9221 30.2972 33.5478 29.3125C33.1734 28.3278 32.9862 27.278 32.9862 26.1631C32.9862 24.8285 33.1734 23.5833 33.5478 22.4277C33.9303 21.2721 34.4877 20.2712 35.2201 19.4248C35.9607 18.5703 36.8721 17.903 37.9545 17.4229C39.045 16.9346 40.2942 16.6904 41.7021 16.6904C42.2636 16.6904 42.8332 16.7352 43.411 16.8247C43.9888 16.9142 44.5422 17.0811 45.0712 17.3252ZM65.4828 33.5117L59.3793 33.8047L59.3305 28.6533H56.5229L56.352 34H50.8832L51.3471 16.8369L57.1576 17.1055L56.7914 25.8701H59.5014L59.5258 16.6904L65.0922 16.8369L65.4828 33.5117ZM86.4804 24.6494C86.4804 25.39 86.3949 26.1061 86.224 26.7979C86.0531 27.4814 85.8049 28.1243 85.4794 28.7266C85.162 29.3288 84.7714 29.8822 84.3075 30.3867C83.8518 30.8831 83.335 31.3104 82.7572 31.6685C82.1876 32.0265 81.565 32.3073 80.8896 32.5107C80.2141 32.7061 79.498 32.8037 78.7411 32.8037C78.0087 32.8037 77.3088 32.7101 76.6415 32.5229C75.9823 32.3358 75.3638 32.0754 74.786 31.7417C74.2082 31.3999 73.6833 30.993 73.2113 30.521C72.7475 30.0409 72.3487 29.5119 72.0151 28.9341C71.6895 28.3481 71.4332 27.7215 71.246 27.0542C71.067 26.3869 70.9775 25.6911 70.9775 24.9668C70.9775 24.2588 71.0629 23.5671 71.2338 22.8916C71.4047 22.208 71.6488 21.5651 71.9662 20.9629C72.2917 20.3607 72.6824 19.8073 73.1381 19.3027C73.5938 18.7982 74.1025 18.3628 74.664 17.9966C75.2336 17.6304 75.8481 17.3455 76.5072 17.1421C77.1664 16.9386 77.8622 16.8369 78.5946 16.8369C79.7747 16.8369 80.8489 17.02 81.8173 17.3862C82.7939 17.7524 83.6239 18.2773 84.3075 18.9609C84.9993 19.6364 85.5323 20.4583 85.9067 21.4268C86.2891 22.387 86.4804 23.4613 86.4804 24.6494ZM81.0605 24.9668C81.0605 24.6169 81.0076 24.2791 80.9018 23.9536C80.8041 23.62 80.6576 23.327 80.4623 23.0747C80.267 22.8143 80.0229 22.6068 79.7299 22.4521C79.4451 22.2894 79.1155 22.208 78.7411 22.208C78.3586 22.208 78.0168 22.2772 77.7157 22.4155C77.4146 22.5539 77.1542 22.7451 76.9345 22.9893C76.7229 23.2253 76.5601 23.506 76.4462 23.8315C76.3323 24.1489 76.2753 24.4867 76.2753 24.8447C76.2753 25.1865 76.3241 25.5283 76.4218 25.8701C76.5194 26.2119 76.6659 26.5212 76.8612 26.7979C77.0566 27.0745 77.2966 27.2983 77.5815 27.4692C77.8744 27.6401 78.2122 27.7256 78.5946 27.7256C78.9771 27.7256 79.3189 27.6523 79.62 27.5059C79.9293 27.3512 80.1897 27.1478 80.4013 26.8955C80.6129 26.6351 80.7756 26.3381 80.8896 26.0044C81.0035 25.6707 81.0605 25.3249 81.0605 24.9668ZM107.173 24.6494C107.173 25.39 107.087 26.1061 106.916 26.7979C106.746 27.4814 106.497 28.1243 106.172 28.7266C105.854 29.3288 105.464 29.8822 105 30.3867C104.544 30.8831 104.027 31.3104 103.45 31.6685C102.88 32.0265 102.257 32.3073 101.582 32.5107C100.906 32.7061 100.19 32.8037 99.4335 32.8037C98.7011 32.8037 98.0012 32.7101 97.3339 32.5229C96.6747 32.3358 96.0562 32.0754 95.4784 31.7417C94.9006 31.3999 94.3757 30.993 93.9037 30.521C93.4399 30.0409 93.0411 29.5119 92.7074 28.9341C92.3819 28.3481 92.1256 27.7215 91.9384 27.0542C91.7594 26.3869 91.6698 25.6911 91.6698 24.9668C91.6698 24.2588 91.7553 23.5671 91.9262 22.8916C92.0971 22.208 92.3412 21.5651 92.6586 20.9629C92.9841 20.3607 93.3748 19.8073 93.8305 19.3027C94.2862 18.7982 94.7948 18.3628 95.3564 17.9966C95.926 17.6304 96.5404 17.3455 97.1996 17.1421C97.8588 16.9386 98.5546 16.8369 99.287 16.8369C100.467 16.8369 101.541 17.02 102.51 17.3862C103.486 17.7524 104.316 18.2773 105 18.9609C105.692 19.6364 106.225 20.4583 106.599 21.4268C106.982 22.387 107.173 23.4613 107.173 24.6494ZM101.753 24.9668C101.753 24.6169 101.7 24.2791 101.594 23.9536C101.496 23.62 101.35 23.327 101.155 23.0747C100.959 22.8143 100.715 22.6068 100.422 22.4521C100.137 22.2894 99.8079 22.208 99.4335 22.208C99.051 22.208 98.7092 22.2772 98.4081 22.4155C98.107 22.5539 97.8466 22.7451 97.6269 22.9893C97.4153 23.2253 97.2525 23.506 97.1386 23.8315C97.0247 24.1489 96.9677 24.4867 96.9677 24.8447C96.9677 25.1865 97.0165 25.5283 97.1142 25.8701C97.2118 26.2119 97.3583 26.5212 97.5536 26.7979C97.7489 27.0745 97.989 27.2983 98.2738 27.4692C98.5668 27.6401 98.9045 27.7256 99.287 27.7256C99.6695 27.7256 100.011 27.6523 100.312 27.5059C100.622 27.3512 100.882 27.1478 101.094 26.8955C101.305 26.6351 101.468 26.3381 101.582 26.0044C101.696 25.6707 101.753 25.3249 101.753 24.9668ZM123.483 27.5303L122.97 32.9502L112.692 33.7559L113.082 16.3242H119.43L118.527 27.5303H123.483ZM152.27 24.3076C152.27 25.4469 152.123 26.4764 151.83 27.396C151.538 28.3075 151.127 29.1213 150.598 29.8374C150.077 30.5454 149.454 31.1558 148.73 31.6685C148.006 32.1812 147.212 32.6043 146.35 32.938C145.487 33.2635 144.567 33.5076 143.591 33.6704C142.622 33.825 141.625 33.9023 140.6 33.9023C140.218 33.9023 139.843 33.8942 139.477 33.8779C139.111 33.8535 138.736 33.821 138.354 33.7803L138.696 17.3984C139.591 17.1136 140.51 16.9142 141.455 16.8003C142.407 16.6782 143.351 16.6172 144.287 16.6172C145.45 16.6172 146.52 16.7922 147.497 17.1421C148.474 17.492 149.316 17.9966 150.024 18.6558C150.732 19.3149 151.281 20.1206 151.672 21.0728C152.071 22.0249 152.27 23.1032 152.27 24.3076ZM147.265 25.0889C147.273 24.6494 147.224 24.2262 147.119 23.8193C147.021 23.4124 146.854 23.0544 146.618 22.7451C146.39 22.4277 146.097 22.1755 145.739 21.9883C145.381 21.793 144.954 21.6872 144.457 21.6709L143.969 29.2393C144.457 29.166 144.901 29.0073 145.3 28.7632C145.698 28.5109 146.04 28.2057 146.325 27.8477C146.618 27.4814 146.842 27.0786 146.996 26.6392C147.159 26.1916 147.249 25.7318 147.265 25.2598V25.0889ZM172.547 32.9502L166.493 33.7314L165.76 30.9727H162.977L162.367 33.7314L156.141 33.1211L160.999 16.8613L167.787 16.5195L172.547 32.9502ZM165.321 27.2373L164.393 22.9893L163.49 27.2373H165.321ZM189.016 16.5439L188.894 21.7197L185.256 21.8662L184.329 33.4385L179.177 33.707L179.202 22.1348L175.564 22.3301L175.71 16.5684L189.016 16.5439ZM208.146 32.9502L202.091 33.7314L201.359 30.9727H198.576L197.965 33.7314L191.74 33.1211L196.598 16.8613L203.385 16.5195L208.146 32.9502ZM200.919 27.2373L199.992 22.9893L199.088 27.2373H200.919Z" fill="white"/>
</g>
<defs>
<filter id="filter0_d_76_45" x="0" y="0" width="216" height="59" filterUnits="userSpaceOnUse" color-interpolation-filters="sRGB">
<feFlood flood-opacity="0" result="BackgroundImageFix"/>
<feColorMatrix in="SourceAlpha" type="matrix" values="0 0 0 0 0 0 0 0 0 0 0 0 0 0 0 0 0 0 127 0" result="hardAlpha"/>
<feOffset dy="4"/>
<feGaussianBlur stdDeviation="2"/>
<feComposite in2="hardAlpha" operator="out"/>
<feColorMatrix type="matrix" values="0 0 0 0 0 0 0 0 0 0 0 0 0 0 0 0 0 0 0.25 0"/>
<feBlend mode="normal" in2="BackgroundImageFix" result="effect1_dropShadow_76_45"/>
<feBlend mode="normal" in="SourceGraphic" in2="effect1_dropShadow_76_45" result="shape"/>
</filter>
</defs>
</svg>
